<svg t="1689706779094" class="icon" viewBox="0 0 1024 1024" version="1.1" xmlns="http://www.w3.org/2000/svg" p-id="8883" width="200" height="200">
    <path d="M908.6976 864.0512H777.216c0.2048-1.9968 0.3072-3.9936 0.3072-6.0416V308.6336c0-35.8912-29.1328-65.024-65.024-65.024h-139.8784V154.6752c0-35.8912-29.1328-65.024-65.024-65.024H182.016c-35.8912 0-65.024 29.1328-65.024 65.024v703.3856c0 2.048 0.1024 4.0448 0.3072 6.0416h-3.8912c-23.7568 0-42.9568 19.2512-42.9568 42.9568 0 23.7568 19.2512 42.9568 42.9568 42.9568h795.3408c23.7568 0 42.9568-19.2512 42.9568-42.9568 0-23.7568-19.2512-43.008-43.008-43.008z" fill="#FFAC3E" p-id="8884"></path>
    <path d="M457.5232 306.0736H232.1408c-22.6304 0-40.96-18.3296-40.96-40.96s18.3296-40.96 40.96-40.96h225.3824c22.6304 0 40.96 18.3296 40.96 40.96s-18.3296 40.96-40.96 40.96zM407.7568 435.3536h-177.152c-22.6304 0-40.96-18.3296-40.96-40.96s18.3296-40.96 40.96-40.96h177.152c22.6304 0 40.96 18.3296 40.96 40.96s-18.3296 40.96-40.96 40.96z" fill="#FFFFFF" p-id="8885"></path>
    <path d="M563.968 438.5792l264.2432-0.4608c9.5744 0 18.432 5.0688 23.2448 13.3632l132.5056 228.608c4.8128 8.2944 4.8128 18.5344 0.0512 26.8288l-131.7376 229.0688a26.79808 26.79808 0 0 1-23.1936 13.4656l-264.2432 0.4608c-9.5744 0-18.432-5.0688-23.2448-13.3632L409.088 707.9424a26.8544 26.8544 0 0 1-0.0512-26.8288l131.7376-229.0688a26.9056 26.9056 0 0 1 23.1936-13.4656z" fill="#FFD05C" p-id="8886"></path>
    <path d="M777.2672 864.0512c0.2048-1.9968 0.3072-3.9936 0.3072-6.0416V438.2208l-213.6064 0.3584c-9.5744 0-18.432 5.1712-23.1936 13.4656l-131.7376 229.0688c-4.7616 8.2944-4.7616 18.5344 0.0512 26.8288l132.5056 228.608a26.74176 26.74176 0 0 0 23.2448 13.3632l264.2432-0.4608c9.5744 0 18.432-5.1712 23.1936-13.4656l41.4208-71.9872h-116.4288z" fill="#FF7C0E" p-id="8887"></path>
    <path d="M696.5248 852.224h-0.3072c-87.1936-0.1536-158.0544-71.2192-157.9008-158.464 0.1536-87.1424 71.0656-157.9008 158.1568-157.9008h0.3072c87.1936 0.1536 158.0544 71.2192 157.9008 158.464-0.1536 87.1424-71.0656 157.9008-158.1568 157.9008z m0-234.4448c-41.984 0-76.1856 34.0992-76.288 76.1344-0.0512 20.3776 7.8848 39.5264 22.2208 53.9648 14.3872 14.4384 33.536 22.3744 53.8624 22.4256h0.1536c41.984 0 76.1856-34.0992 76.288-76.1344 0.0512-20.3776-7.8848-39.5264-22.2208-53.9648s-33.536-22.3744-53.8624-22.4256h-0.1536z m117.1968 76.4928z" fill="#FFFFFF" p-id="8888"></path>
</svg>