<svg t="1689706631245" class="icon" viewBox="0 0 1024 1024" version="1.1" xmlns="http://www.w3.org/2000/svg" p-id="4466" width="200" height="200">
    <path d="M0 0h1024v1024H0V0z" fill="#202425" opacity=".01" p-id="4467"></path>
    <path d="M136.533333 341.333333h750.933334v423.7312a68.266667 68.266667 0 0 1-38.5024 61.44l-277.4016 134.485334a136.533333 136.533333 0 0 1-119.125334 0l-277.435733-134.485334A68.266667 68.266667 0 0 1 136.533333 765.0304V341.333333z" fill="#FFAA44" p-id="4468"></path>
    <path d="M955.733333 341.333333h34.133334v324.266667a17.066667 17.066667 0 0 1-34.133334 0V341.333333z" fill="#11AA66" p-id="4469"></path>
    <path d="M495.957333 76.834133a34.133333 34.133333 0 0 1 32.085334 0l467.729066 249.4464a17.066667 17.066667 0 0 1 0 30.1056L528.042667 605.866667a34.133333 34.133333 0 0 1-32.1536 0L28.228267 356.386133a17.066667 17.066667 0 0 1 0-30.1056L495.957333 76.8z" fill="#11AA66" p-id="4470"></path>
</svg>