<svg t="1694265641573" class="icon" viewBox="0 0 1024 1024" version="1.1" xmlns="http://www.w3.org/2000/svg" p-id="38315" width="200" height="200">
    <path d="M222.784 832a64 64 0 1 1 2.432 128 64 64 0 0 1-2.432-128z m576 0a64 64 0 1 1 2.432 128 64 64 0 0 1-2.432-128z m-66.368-323.328c30.72 0 60.096 11.136 80.896 30.528l111.872 103.744c9.728 8.96 15.104 20.736 15.104 33.024v206.4c0 8.832-8.256 16-18.56 16.128h-2.816c-9.28 0-16.96-5.952-18.368-13.824-7.68-44.544-51.84-78.784-105.152-78.784s-97.536 34.176-105.152 78.72c-1.28 7.936-9.024 13.888-18.368 13.888h-37.504c-10.24 0-18.56-7.296-18.56-16.128V524.8c0-8.832 8.32-16 18.56-16.128zM522.112 371.84c20.416 0 36.992 14.464 36.992 32.256v462.272a29.76 29.76 0 0 1-10.752 22.656 40.576 40.576 0 0 1-26.24 9.536h-161.92c-9.344 0-17.024-5.952-18.368-13.824-7.68-44.544-51.84-78.784-105.216-78.784-58.752 0-106.368 41.472-106.368 92.608a37.504 37.504 0 0 1-24.32-8.832 27.52 27.52 0 0 1-9.92-20.992v-464.64a29.76 29.76 0 0 1 10.688-22.656 40.576 40.576 0 0 1 26.304-9.6z m184.32 194.112h-7.36c-10.176 0-18.496 7.168-18.496 16.128v115.968c0 8.832 8.192 16 18.56 16.128h157.888c10.176 0 18.496-7.296 18.496-16.128v-10.944a30.08 30.08 0 0 0-10.752-22.656L785.28 594.56a119.488 119.488 0 0 0-78.848-28.672z m25.92-313.216c26.944 0 52.8 8.512 72.768 23.68l8.192 6.848 111.872 103.744a45.824 45.824 0 0 1 14.464 25.728l0.64 7.296-0.064 200.192-102.72-102.656a128 128 0 0 0-79.296-36.992l-11.2-0.512h-95.68a60.736 60.736 0 0 1-35.52-11.456v-199.68c0-7.616 6.08-13.952 14.272-15.744l4.288-0.448h97.984z m-25.92 57.216h-7.36c-8.704 0-16 5.248-17.984 12.416l-0.512 3.712v115.968c0 7.552 6.016 13.952 14.272 15.616l4.224 0.512h157.952c8.704 0 16.064-5.376 17.984-12.48l0.512-3.648v-10.944a29.44 29.44 0 0 0-7.04-18.816l-3.712-3.84L785.28 338.56a119.488 119.488 0 0 0-78.848-28.672z m-184.32-194.112c18.368 0 33.664 11.712 36.48 27.008l0.512 5.248v190.848a60.288 60.288 0 0 0-19.392-5.696l-7.04-0.384H96V147.968a28.992 28.992 0 0 1 6.912-18.816l3.84-3.84a39.68 39.68 0 0 1 20.352-9.152l5.888-0.448h389.12z" fill="#1296db" p-id="38316"></path>
</svg>