<svg t="1694265871172" class="icon" viewBox="0 0 1024 1024" version="1.1" xmlns="http://www.w3.org/2000/svg" p-id="56508" width="200" height="200">
    <path d="M480 64h64v64h-64zM64 480h64v64H64zM896 480h64v64h-64zM480 256h64v448h-64z" fill="#1296db" p-id="56509"></path>
    <path d="M859.52 887.68l-43.52-46.72C908.8 754.56 960 638.08 960 512c0-247.04-200.96-448-448-448S64 264.96 64 512c0 126.08 51.2 242.56 144 328.32l-43.52 46.72A513.664 513.664 0 0 1 0 512c0-282.24 229.76-512 512-512s512 229.76 512 512c0 141.44-60.16 278.4-164.48 375.68zM64 960h896v64H64z" fill="#1296db" p-id="56510"></path>
</svg>