<svg t="1694265816655" class="icon" viewBox="0 0 1024 1024" version="1.1" xmlns="http://www.w3.org/2000/svg" p-id="51560" width="200" height="200">
    <path d="M747.183268 764.827497l-216.235978-316.600106H372.783994l-229.55559 329.78038a31.629563 31.629563 0 0 0-4.118191 8.375719c-9.882626 20.456777-13.593126 45.444596-13.593126 69.74605 0 13.319612 2.198433 26.221212 6.316623 38.168094 0.547028 2.745461 1.37273 5.356744 2.198433 7.962867l5.903772 12.081059a60.843946 60.843946 0 0 0 18.94471 18.944709 30.148459 30.148459 0 0 0 21.69017 9.062084h4.804556c1.919758 0.139337 3.984014 0.273514 6.043109 0.273514s3.984014-0.139337 6.04311-0.273514h505.376318c2.059095 0.139337 3.984014 0.273514 6.04311 0.273514s3.984014-0.139337 6.043109-0.273514h2.33261a30.752254 30.752254 0 0 0 17.159128-5.217407 60.833625 60.833625 0 0 0 26.087035-22.789386l5.903772-12.081059c0.959879-2.606123 1.646244-5.217407 2.198433-7.962867a117.084601 117.084601 0 0 0 6.316623-38.168094c0.134177-33.776389-7.008149-68.512657-27.73844-91.302043z" fill="#CECEE7" p-id="51561"></path>
    <path d="M418.367927 583.735477a32.811349 32.811349 0 1 0 32.81135-32.811349c-17.984831-0.139337-32.811349 14.553005-32.81135 32.811349z m70.293078-101.458183c0 7.276502 3.844677 13.86664 10.161301 17.571979a20.348404 20.348404 0 0 0 20.183263 0 20.126496 20.126496 0 0 0 10.1613-17.571979 20.214227 20.214227 0 0 0-20.183263-20.183264c-11.260517 0-20.3226 8.922747-20.322601 20.183264z m20.31744-81.001406a20.214227 20.214227 0 0 0 20.183263 20.183263c11.121179 0 20.183263-9.062084 20.183264-20.183263s-9.062084-20.183263-20.183264-20.183264a20.126496 20.126496 0 0 0-20.183263 20.183264z m9.887787-94.321018c0 5.630258 4.670379 10.295477 10.295476 10.295476s10.295477-4.670379 10.295477-10.295476a10.372886 10.372886 0 0 0-10.295477-10.295477 10.192264 10.192264 0 0 0-10.295476 10.295477z m19.496898-170.517869a18.54734 18.54734 0 0 0 18.537019 18.537019 18.54734 18.54734 0 0 0 18.537019-18.537019 18.459609 18.459609 0 0 0-18.537019-18.537019 18.54218 18.54218 0 0 0-18.537019 18.537019z m-66.453562-5.903772c0 4.531042 2.471947 8.649233 6.316623 10.981842a12.922243 12.922243 0 0 0 12.633247 0c3.984014-2.198433 6.316623-6.4508 6.316623-10.981842 0-4.531042-2.471947-8.649233-6.316623-10.981842a12.922243 12.922243 0 0 0-12.633247 0c-3.978853 2.193272-6.316623 6.4508-6.316623 10.981842z m54.919531-32.130145a12.602283 12.602283 0 0 0 12.633247 12.633247 12.602283 12.602283 0 0 0 12.633247-12.633247 12.602283 12.602283 0 0 0-12.633247-12.633247 12.607444 12.607444 0 0 0-12.633247 12.633247z m-49.015759-12.628086a12.602283 12.602283 0 0 0 12.633247 12.633247c7.002989 0 12.633247-5.630258 12.633247-12.633247s-5.630258-12.633247-12.633247-12.633247a12.602283 12.602283 0 0 0-12.633247 12.633247z m30.065889 77.569581c0 3.70534 3.018974 6.729475 6.729475 6.729474 3.70534 0 6.729475-3.018974 6.729474-6.729474 0-3.70534-3.018974-6.729475-6.729474-6.729475s-6.729475 3.024135-6.729475 6.729475z" fill="#E3556E" p-id="51562"></path>
    <path d="M871.296661 735.721487l-233.400267-333.48572V261.64445h2.198433c25.40067 0 46.130961-6.863651 46.130961-32.403659 0-25.40067-20.596114-32.403659-46.130961-32.403659H380.746862c-25.40067 0-46.130961 6.863651-46.130962 32.403659 0 25.40067 20.596114 32.403659 46.130962 32.403659h4.11819v140.586156L140.209429 751.647222a34.070546 34.070546 0 0 0-4.943893 10.021963c-11.946882 24.848482-16.472763 54.919531-16.472763 84.433232 0 16.199249 2.745461 31.712133 7.689354 46.270298 0.686365 3.297649 1.646244 6.4508 2.74546 9.609112l7.137165 14.553005a75.035706 75.035706 0 0 0 23.062901 22.928723c6.729475 6.729475 15.925735 10.981842 26.221212 10.981843h5.903772a64.889888 64.889888 0 0 0 14.553005 0h611.778395a64.889888 64.889888 0 0 0 14.553005 0h2.884797a37.208215 37.208215 0 0 0 20.730292-6.316624 74.024221 74.024221 0 0 0 31.577956-27.593942l7.137165-14.553005c1.099216-3.158312 2.059095-6.316623 2.745461-9.609112 5.07807-14.965856 7.689354-30.47874 7.689353-46.270298-0.129016-40.774217-8.778249-82.926325-33.905405-110.38093zM421.660416 438.752456a36.816006 36.816006 0 0 0 5.356744-11.534031 34.612413 34.612413 0 0 0 3.844677-16.472763V261.64445h160.769419v148.961875a36.795363 36.795363 0 0 0 3.844677 16.472763c1.099216 4.118191 2.884798 8.102205 5.356744 11.53403l241.770826 355.041714c0.959879 1.37273 1.919758 2.606123 3.018974 3.844677 2.745461 8.102205 6.177286 31.304442 6.177286 39.953675 0 24.574968-5.217407 51.348368-28.419645 59.724087H206.936505c-23.202238-8.375719-35.283296-35.149119-35.283296-59.724087 0-9.335598 4.118191-33.497715 6.863651-41.873433h-0.139337c0.547028-0.547028 0.959879-1.233393 1.37273-1.919759l241.910163-354.907536z" fill="#0E3F86" p-id="51563"></path>
    <path d="M750.34158 836.080454L656.433413 708.808749a75.531128 75.531128 0 0 1-44.484717 14.413668 75.216329 75.216329 0 0 1-58.21202-27.320429 66.427759 66.427759 0 0 0-10.981842-17.571979 4.200761 4.200761 0 0 0-0.547028-1.099217h-0.412851a67.088321 67.088321 0 0 0-50.109815-22.242358c-34.323417 0-62.603724 25.674184-66.861252 58.759047a38.2197 38.2197 0 0 1-34.323417 21.416657c-13.593126 0-25.534847-7.137165-32.403659-17.850654l-87.591543 118.756648 479.836311 0.010322z" fill="#E3556E" p-id="51564"></path>
</svg>