<svg t="1694265709913" class="icon" viewBox="0 0 1024 1024" version="1.1" xmlns="http://www.w3.org/2000/svg" p-id="46278" width="200" height="200">
    <path d="M493.824 593.152l0 18.88 0 163.968 0 19.008 17.6 0 203.84 0 17.6 0 0-19.008L732.864 612.032 732.864 593.152l-17.6 0L511.424 593.152 493.824 593.152zM697.6 630.976l0 63.232-19.712-63.232L697.6 630.976zM659.52 630.976l38.144 122.88 0 3.008-19.776 0L638.848 630.976 659.52 630.976zM620.352 630.976l38.976 125.888L638.656 756.864 599.616 630.976 620.352 630.976zM581.12 630.976l38.976 125.888L599.488 756.864 560.384 630.976 581.12 630.976zM529.024 630.976l12.864 0 39.104 125.888L560.32 756.864l-31.296-100.608L529.024 630.976zM529.024 715.904l12.736 41.088L529.024 756.992 529.024 715.904z" fill="#1296db" p-id="46279"></path>
    <path d="M784.512 593.152l0 18.88 0 163.968 0 19.008 17.6 0 203.84 0 17.6 0 0-19.008L1023.552 612.032 1023.552 593.152l-17.6 0-203.84 0L784.512 593.152zM988.224 630.976l0 63.232-19.648-63.232L988.224 630.976zM950.144 630.976l38.144 122.88 0 3.008-19.712 0-39.04-125.888L950.144 630.976zM910.976 630.976l38.912 125.888-20.544 0L890.24 630.976 910.976 630.976zM871.744 630.976l39.104 125.888-20.736 0-38.976-125.888L871.744 630.976zM819.776 630.976l12.736 0 39.104 125.888-20.608 0-31.232-100.608L819.776 630.976zM819.776 715.904l12.736 41.088-12.736 0L819.776 715.904z" fill="#1296db" p-id="46280"></path>
    <path d="M222.784 794.944l17.6 0 0-19.008L240.384 612.032 240.384 593.152 222.784 593.152 18.944 593.152 1.216 593.152l0 18.88 0 163.968 0 19.008 17.728 0L222.784 795.008zM205.12 630.976l0 63.232L185.472 630.976 205.12 630.976zM166.976 630.976l38.144 122.88 0 3.008L185.408 756.864 146.304 630.976 166.976 630.976zM127.808 630.976l39.104 125.888L146.24 756.864 107.072 630.976 127.808 630.976zM88.576 630.976l39.104 125.888L106.944 756.864l-39.04-125.888L88.576 630.976zM36.672 630.976l12.672 0 39.104 125.888L67.904 756.864l-31.232-100.608L36.672 630.976zM36.608 715.904l12.672 41.088L36.608 756.992 36.608 715.904z" fill="#1296db" p-id="46281"></path>
    <path d="M222.784 562.432l17.6 0L240.384 543.552 240.384 379.648 240.384 360.64 222.784 360.64 18.944 360.64 1.216 360.64l0 19.008 0 163.904 0 18.88 17.728 0L222.784 562.432zM205.12 398.528l0 63.232L185.472 398.528 205.12 398.528zM166.976 398.528l38.144 122.816 0 3.136L185.408 524.48 146.304 398.528 166.976 398.528zM127.808 398.528l39.104 125.952L146.24 524.48 107.072 398.528 127.808 398.528zM88.576 398.528l39.104 125.952L106.944 524.48l-39.04-125.952L88.576 398.528zM36.608 398.528l12.736 0 39.104 125.952L67.904 524.48 36.608 423.808 36.608 398.528zM36.608 483.392 49.28 524.48 36.608 524.48 36.608 483.392z" fill="#1296db" p-id="46282"></path>
    <path d="M408.128 832 408.128 508.672l30.336 0L438.464 458.688l321.152-220.352 0 193.472-72.512 0 0 126.464 163.52 0L850.624 431.808l-71.36 0L779.264 224.768l12.032-8.256 14.656-9.984-6.528-17.28-15.104-39.872L776.128 128 756.48 137.28 337.472 336.896 285.504 336.896l0 171.776 27.84 0L313.344 832 0 832l0 64 1024 0 0-64L408.128 832zM721.152 203.008l32.768-15.488 0.576 1.344-35.2 24.128C720 209.152 720.64 205.76 721.152 203.008zM705.472 210.624c0.64 3.264 1.28 6.912 1.856 10.56l-21.12 14.528c-4.16-3.392-8.576-6.848-12.48-9.984L705.472 210.624zM657.6 240.704l9.984 7.68L652.992 258.56 657.6 240.704zM635.2 244.032l-8.32 32.384L618.688 282.048 589.696 265.664 635.2 244.032zM569.856 279.808l28.608 16.128L569.024 316.16 569.856 279.808zM548.992 285.184 548.032 326.656 511.168 303.04 548.992 285.184zM499.136 321.344l32.128 20.672L497.152 365.376 499.136 321.344zM478.528 318.656 476.928 353.408 453.952 330.432 478.528 318.656zM438.464 345.536 474.24 381.184 438.464 405.632 438.464 345.536z" fill="#1296db" p-id="46283"></path>
</svg>