<svg t="1694265474181" class="icon" viewBox="0 0 1024 1024" version="1.1" xmlns="http://www.w3.org/2000/svg" p-id="27962" width="200" height="200">
    <path d="M276.821333 724.550275c-24.094118 0-46.180392-10.039216-62.243137-26.101961-16.062745-16.062745-26.101961-38.14902-26.101961-62.243138 0-24.094118 10.039216-46.180392 26.101961-62.243137l311.215686-311.215686c2.007843-2.007843 6.023529-4.015686 10.039216-4.015686s8.031373 2.007843 10.039216 6.023529c20.078431 32.12549 46.180392 56.219608 46.180392 56.219608l2.007843 2.007843s22.086275 24.094118 52.203922 44.172549c4.015686 2.007843 6.023529 6.023529 6.023529 10.039216s0 8.031373-4.015686 10.039215l-309.207843 311.215687c-16.062745 16.062745-38.14902 26.101961-62.243138 26.101961z m254.996079-429.678432l-299.168628 299.168628c-12.047059 12.047059-18.070588 26.101961-18.070588 44.172549s6.023529 32.12549 18.070588 44.172549c22.086275 22.086275 64.25098 22.086275 86.337255 0l299.168628-299.168628c-24.094118-18.070588-40.156863-36.141176-44.172549-40.156863-4.015686-4.015686-22.086275-22.086275-42.164706-48.188235z" fill="#1296db" p-id="27963"></path>
    <path d="M726.578196 421.365961c-30.117647 0-62.243137-10.039216-94.368627-32.12549-34.133333-22.086275-58.227451-48.188235-58.227451-50.196079 0 0-28.109804-24.094118-50.196079-60.235294-42.164706-68.266667-38.14902-134.52549 14.054902-186.729412 94.368627-92.360784 186.729412-80.313725 206.807843-58.227451 8.031373 8.031373 8.031373 20.078431 0 28.109804l-78.305882 78.305883 18.070588 92.360784 92.360785 16.062745 78.305882-78.305882c6.023529-6.023529 12.047059-8.031373 18.070588-6.02353 10.039216 2.007843 18.070588 12.047059 22.086275 28.109804 12.047059 42.164706 0 116.454902-72.282353 186.729412-30.117647 28.109804-62.243137 42.164706-96.376471 42.164706z m-32.12549-377.47451c-24.094118 0-78.305882 8.031373-138.541177 68.266667-42.164706 42.164706-46.180392 94.368627-10.039215 154.603921 20.078431 32.12549 46.180392 56.219608 46.180392 56.219608 2.007843 2.007843 22.086275 26.101961 54.211765 46.180392 60.235294 38.14902 112.439216 36.141176 156.611764-8.031372 64.25098-64.25098 68.266667-120.470588 68.266667-142.556863 0-12.047059-2.007843-20.078431-4.015686-24.094118l-78.305883 78.305883c-2.007843 2.007843-8.031373 4.015686-12.047058 4.015686l-106.415687-18.070588c-6.023529 0-10.039216-6.023529-10.039215-10.039216l-18.070589-106.415686c0-4.015686 0-8.031373 4.015687-12.047059l78.305882-78.305882c-4.015686-2.007843-14.054902-4.015686-24.094118-4.015687-4.015686-2.007843-6.023529-4.015686-6.023529-4.015686z m168.658823 134.52549zM300.895373 590.024784c-4.015686 0-6.023529-2.007843-10.039216-4.015686-6.023529-6.023529-6.023529-14.054902 0-18.070588l232.909804-230.901961c6.023529-6.023529 14.054902-6.023529 18.070588 0 6.023529 6.023529 6.023529 14.054902 0 18.070588l-230.901961 232.909804c-2.007843 2.007843-6.023529 2.007843-10.039215 2.007843zM337.056627 626.165961c-4.015686 0-6.023529-2.007843-10.039215-4.015686-6.023529-6.023529-6.023529-14.054902 0-18.070589l230.901961-230.901961c6.023529-6.023529 14.054902-6.023529 18.070588 0s6.023529 14.054902 0 18.070589l-230.901961 230.901961c-2.007843 2.007843-4.015686 4.015686-8.031373 4.015686z" fill="#1296db" p-id="27964"></path>
    <path d="M197.89302 179.641725c-6.023529 0-10.039216-4.015686-12.047059-6.023529l-32.12549-58.227451c-2.007843-6.023529-2.007843-12.047059 2.007843-16.062745l18.070588-18.070588c4.015686-4.015686 10.039216-6.023529 16.062745-2.007843l58.227451 34.133333c4.015686 2.007843 6.023529 6.023529 6.023529 10.039216s0 8.031373-4.015686 10.039215l-42.164706 42.164706c-2.007843 2.007843-6.023529 4.015686-10.039215 4.015686z m-16.062745-70.274509l20.078431 34.133333 18.070588-18.070588-34.133333-20.078432-4.015686 4.015687z m-8.031373-10.039216z" fill="#1296db" p-id="27965"></path>
    <path d="M378.598902 358.339765c-4.015686 0-6.023529-2.007843-10.039216-4.015687l-178.698039-178.698039c-6.023529-6.023529-6.023529-14.054902 0-18.070588l42.164706-42.164706c4.015686-4.015686 14.054902-4.015686 18.070588 0l178.698039 178.698039c2.007843 2.007843 4.015686 6.023529 4.015687 10.039216s-2.007843 6.023529-4.015687 10.039216l-42.164705 40.156862c-2.007843 2.007843-6.023529 4.015686-8.031373 4.015687z m-160.627451-192.752941l160.627451 160.627451 24.094118-24.094118-160.627451-160.627451-24.094118 24.094118z" fill="#1296db" p-id="27966"></path>
    <path d="M687.806745 723.767216c-24.094118 0-48.188235-12.047059-70.27451-34.133334-68.266667-68.266667-160.627451-206.807843-164.643137-212.831372-2.007843-2.007843-20.078431-40.156863-44.172549-38.14902-28.109804 2.007843-60.235294-16.062745-72.282353-38.149019-6.023529-14.054902-6.023529-26.101961 4.015686-36.141177 20.078431-22.086275 50.196078-50.196078 50.196079-50.196078s28.109804-30.117647 50.196078-50.196079c10.039216-8.031373 24.094118-10.039216 36.141177-4.015686 24.094118 12.047059 40.156863 44.172549 38.149019 72.282353-2.007843 20.078431 26.101961 38.14902 36.141177 42.164706h2.007843c6.023529 4.015686 142.556863 96.376471 212.831372 164.643137 24.094118 24.094118 34.133333 48.188235 34.133334 74.290196-2.007843 38.14902-30.117647 64.25098-38.14902 70.27451-6.023529 6.023529-32.12549 34.133333-70.27451 38.14902-2.007843 2.007843-4.015686 2.007843-4.015686 2.007843z m-212.831372-257.003922s94.368627 140.54902 160.627451 206.807843c18.070588 18.070588 36.141176 26.101961 54.211764 26.101961 30.117647-2.007843 52.203922-28.109804 52.203922-28.109804l2.007843-2.007843s26.101961-22.086275 28.109804-52.203922c0-18.070588-8.031373-36.141176-26.101961-54.211764-64.25098-64.25098-196.768627-154.603922-206.807843-160.627451-8.031373-4.015686-54.211765-28.109804-50.196078-68.266667 2.007843-18.070588-12.047059-40.156863-24.094118-46.180392-4.015686-2.007843-6.023529 0-8.031373 0-20.078431 18.070588-48.188235 48.188235-48.188235 48.188235-2.007843 2.007843-32.12549 28.109804-50.196078 50.196079 0 2.007843-2.007843 2.007843 0 8.031372 6.023529 12.047059 28.109804 26.101961 46.180392 24.094118 44.172549-6.023529 68.266667 46.180392 70.27451 48.188235z" fill="#1296db" p-id="27967"></path>
    <path d="M701.861647 669.555451c-12.047059 0-22.086275-4.015686-32.12549-12.047059-18.070588-18.070588-18.070588-46.180392 0-62.243137 18.070588-18.070588 46.180392-18.070588 62.243137 0 18.070588 18.070588 18.070588 46.180392 0 62.243137-6.023529 8.031373-18.070588 12.047059-30.117647 12.047059z m0-62.243137c-4.015686 0-10.039216 2.007843-12.047059 6.023529-8.031373 8.031373-8.031373 18.070588 0 26.101961s18.070588 8.031373 26.101961 0 8.031373-18.070588 0-26.101961c-4.015686-4.015686-10.039216-6.023529-14.054902-6.023529zM629.579294 567.155451c-4.015686 0-6.023529-2.007843-10.039216-4.015686l-146.572549-146.572549c-6.023529-6.023529-6.023529-14.054902 0-18.070589s14.054902-6.023529 18.070589 0l146.572549 146.572549c6.023529 6.023529 6.023529 14.054902 0 18.070589-2.007843 4.015686-4.015686 4.015686-8.031373 4.015686z" fill="#1296db" p-id="27968"></path>
    <path d="M803.137255 953.72549h-602.352941c-44.172549 0-80.313725-36.141176-80.313726-80.313725s36.141176-80.313725 80.313726-80.313726h602.352941c44.172549 0 80.313725 36.141176 80.313725 80.313726s-36.141176 80.313725-80.313725 80.313725z m-602.352941-140.549019c-34.133333 0-60.235294 26.101961-60.235294 60.235294s26.101961 60.235294 60.235294 60.235294h602.352941c34.133333 0 60.235294-26.101961 60.235294-60.235294s-26.101961-60.235294-60.235294-60.235294h-602.352941z" fill="#1296db" p-id="27969"></path>
    <path d="M833.254902 1013.960784H190.745098C118.462745 1013.960784 60.235294 955.733333 60.235294 883.45098s58.227451-130.509804 130.509804-130.509804h642.509804c72.282353 0 130.509804 58.227451 130.509804 130.509804s-58.227451 130.509804-130.509804 130.509804z m-642.509804-240.941176c-60.235294 0-110.431373 50.196078-110.431373 110.431372S130.509804 993.882353 190.745098 993.882353h642.509804c60.235294 0 110.431373-50.196078 110.431373-110.431373S893.490196 773.019608 833.254902 773.019608H190.745098z" fill="#1296db" p-id="27970"></path>
    <path d="M190.745098 813.176471c-16.062745 0-30.117647-14.054902-30.117647-30.117647s14.054902-30.117647 30.117647-30.117648 30.117647 14.054902 30.117647 30.117648-14.054902 30.117647-30.117647 30.117647z m0-40.156863c-6.023529 0-10.039216 4.015686-10.039216 10.039216s4.015686 10.039216 10.039216 10.039215 10.039216-4.015686 10.039216-10.039215-4.015686-10.039216-10.039216-10.039216zM190.745098 1013.960784c-16.062745 0-30.117647-14.054902-30.117647-30.117647s14.054902-30.117647 30.117647-30.117647 30.117647 14.054902 30.117647 30.117647-14.054902 30.117647-30.117647 30.117647z m0-40.156862c-6.023529 0-10.039216 4.015686-10.039216 10.039215s4.015686 10.039216 10.039216 10.039216 10.039216-4.015686 10.039216-10.039216-4.015686-10.039216-10.039216-10.039215zM90.352941 893.490196c-16.062745 0-30.117647-14.054902-30.117647-30.117647s14.054902-30.117647 30.117647-30.117647 30.117647 14.054902 30.117647 30.117647-14.054902 30.117647-30.117647 30.117647z m0-40.156863c-6.023529 0-10.039216 4.015686-10.039216 10.039216s4.015686 10.039216 10.039216 10.039216 10.039216-4.015686 10.039216-10.039216-4.015686-10.039216-10.039216-10.039216zM933.647059 893.490196c-16.062745 0-30.117647-14.054902-30.117647-30.117647s14.054902-30.117647 30.117647-30.117647 30.117647 14.054902 30.117647 30.117647-14.054902 30.117647-30.117647 30.117647z m0-40.156863c-6.023529 0-10.039216 4.015686-10.039216 10.039216s4.015686 10.039216 10.039216 10.039216 10.039216-4.015686 10.039216-10.039216-4.015686-10.039216-10.039216-10.039216zM311.215686 813.176471c-16.062745 0-30.117647-14.054902-30.117647-30.117647s14.054902-30.117647 30.117647-30.117648 30.117647 14.054902 30.117647 30.117648-14.054902 30.117647-30.117647 30.117647z m0-40.156863c-6.023529 0-10.039216 4.015686-10.039215 10.039216s4.015686 10.039216 10.039215 10.039215 10.039216-4.015686 10.039216-10.039215-4.015686-10.039216-10.039216-10.039216zM311.215686 1013.960784c-16.062745 0-30.117647-14.054902-30.117647-30.117647s14.054902-30.117647 30.117647-30.117647 30.117647 14.054902 30.117647 30.117647-14.054902 30.117647-30.117647 30.117647z m0-40.156862c-6.023529 0-10.039216 4.015686-10.039215 10.039215s4.015686 10.039216 10.039215 10.039216 10.039216-4.015686 10.039216-10.039216-4.015686-10.039216-10.039216-10.039215zM431.686275 813.176471c-16.062745 0-30.117647-14.054902-30.117648-30.117647s14.054902-30.117647 30.117648-30.117648 30.117647 14.054902 30.117647 30.117648-14.054902 30.117647-30.117647 30.117647z m0-40.156863c-6.023529 0-10.039216 4.015686-10.039216 10.039216s4.015686 10.039216 10.039216 10.039215 10.039216-4.015686 10.039215-10.039215-4.015686-10.039216-10.039215-10.039216zM431.686275 1013.960784c-16.062745 0-30.117647-14.054902-30.117648-30.117647s14.054902-30.117647 30.117648-30.117647 30.117647 14.054902 30.117647 30.117647-14.054902 30.117647-30.117647 30.117647z m0-40.156862c-6.023529 0-10.039216 4.015686-10.039216 10.039215s4.015686 10.039216 10.039216 10.039216 10.039216-4.015686 10.039215-10.039216-4.015686-10.039216-10.039215-10.039215zM572.235294 813.176471c-16.062745 0-30.117647-14.054902-30.117647-30.117647s14.054902-30.117647 30.117647-30.117648 30.117647 14.054902 30.117647 30.117648-14.054902 30.117647-30.117647 30.117647z m0-40.156863c-6.023529 0-10.039216 4.015686-10.039216 10.039216s4.015686 10.039216 10.039216 10.039215 10.039216-4.015686 10.039216-10.039215-4.015686-10.039216-10.039216-10.039216zM572.235294 1013.960784c-16.062745 0-30.117647-14.054902-30.117647-30.117647s14.054902-30.117647 30.117647-30.117647 30.117647 14.054902 30.117647 30.117647-14.054902 30.117647-30.117647 30.117647z m0-40.156862c-6.023529 0-10.039216 4.015686-10.039216 10.039215s4.015686 10.039216 10.039216 10.039216 10.039216-4.015686 10.039216-10.039216-4.015686-10.039216-10.039216-10.039215zM692.705882 813.176471c-16.062745 0-30.117647-14.054902-30.117647-30.117647s14.054902-30.117647 30.117647-30.117648 30.117647 14.054902 30.117647 30.117648-14.054902 30.117647-30.117647 30.117647z m0-40.156863c-6.023529 0-10.039216 4.015686-10.039215 10.039216s4.015686 10.039216 10.039215 10.039215 10.039216-4.015686 10.039216-10.039215-4.015686-10.039216-10.039216-10.039216zM692.705882 1013.960784c-16.062745 0-30.117647-14.054902-30.117647-30.117647s14.054902-30.117647 30.117647-30.117647 30.117647 14.054902 30.117647 30.117647-14.054902 30.117647-30.117647 30.117647z m0-40.156862c-6.023529 0-10.039216 4.015686-10.039215 10.039215s4.015686 10.039216 10.039215 10.039216 10.039216-4.015686 10.039216-10.039216-4.015686-10.039216-10.039216-10.039215zM833.254902 813.176471c-16.062745 0-30.117647-14.054902-30.117647-30.117647s14.054902-30.117647 30.117647-30.117648 30.117647 14.054902 30.117647 30.117648-14.054902 30.117647-30.117647 30.117647z m0-40.156863c-6.023529 0-10.039216 4.015686-10.039216 10.039216s4.015686 10.039216 10.039216 10.039215 10.039216-4.015686 10.039216-10.039215-4.015686-10.039216-10.039216-10.039216zM833.254902 1013.960784c-16.062745 0-30.117647-14.054902-30.117647-30.117647s14.054902-30.117647 30.117647-30.117647 30.117647 14.054902 30.117647 30.117647-14.054902 30.117647-30.117647 30.117647z m0-40.156862c-6.023529 0-10.039216 4.015686-10.039216 10.039215s4.015686 10.039216 10.039216 10.039216 10.039216-4.015686 10.039216-10.039216-4.015686-10.039216-10.039216-10.039215z" fill="#1296db" p-id="27971"></path>
</svg>