<svg t="1694266127371" class="icon" viewBox="0 0 1024 1024" version="1.1" xmlns="http://www.w3.org/2000/svg" p-id="74649" width="200" height="200">
    <path d="M512 1024c-79.36 0-147.968-83.968-188.416-229.888-4.608-16.896 5.12-34.816 22.528-39.424 16.896-4.608 34.816 5.12 39.424 22.016 30.72 111.104 80.896 183.296 126.976 183.296 41.984 0 86.528-58.88 117.76-152.576-42.496-12.8-86.528-29.696-131.072-50.176-15.872-7.168-23.04-26.624-15.872-42.496 7.168-15.872 26.624-23.04 42.496-15.872 52.736 24.064 103.936 43.008 152.576 55.296 8.192 2.048 15.36 7.68 19.456 14.848 4.096 7.68 5.632 16.384 3.072 24.576-40.96 146.432-109.568 230.4-188.928 230.4zM512 328.192c-4.608 0-9.216-1.024-13.312-3.072-52.736-24.064-103.936-43.008-152.576-55.296-8.192-2.048-15.36-7.68-19.456-14.848-4.096-7.68-5.632-16.384-3.072-24.576C364.032 83.968 432.64 0 512 0s147.968 83.968 188.416 229.888c2.048 8.192 1.024 16.896-3.072 24.576s-11.264 12.8-19.456 14.848c-48.64 12.8-99.84 31.232-152.576 55.296-4.096 2.56-8.704 3.584-13.312 3.584zM394.24 216.576c38.4 11.776 77.824 26.112 117.76 44.032 39.936-17.92 79.36-32.768 117.76-44.032-31.232-93.696-75.776-152.576-117.76-152.576S425.472 122.88 394.24 216.576z" fill="#1296db" p-id="74650"></path>
    <path d="M196.608 544.256c-8.704 0-16.896-3.584-23.04-9.728C67.072 425.984 29.184 324.608 68.608 256c39.424-68.608 146.432-86.016 293.376-48.128 16.896 4.608 27.648 22.016 23.04 38.912-4.608 16.896-22.016 27.648-38.912 23.04-111.616-28.672-199.168-21.504-222.208 18.432-20.992 36.352 7.68 104.448 73.216 178.176 32.256-30.208 69.12-59.904 109.056-88.576 14.336-10.24 34.304-6.656 44.544 7.68 10.24 14.336 6.656 34.304-7.68 44.544-47.104 33.28-89.088 68.608-123.904 104.448-6.144 6.144-14.336 9.728-22.528 9.728zM799.232 836.096c-39.936 0-86.016-6.656-137.216-19.456-8.192-2.048-15.36-7.68-19.456-14.848-4.096-7.68-5.632-16.384-3.072-24.576 13.312-48.64 23.04-102.4 28.16-159.744 1.024-9.216 5.632-17.92 13.312-23.04 47.104-33.28 89.088-68.608 123.904-104.448 6.144-6.144 14.336-9.728 23.04-9.728 8.704 0 16.896 3.584 23.04 9.728 106.496 108.032 144.384 209.92 104.96 278.528-26.624 44.544-80.896 67.584-156.672 67.584z m-90.112-74.752c96.768 19.968 169.984 10.752 190.976-25.6 20.992-36.352-7.68-104.448-73.216-178.176-29.184 27.136-61.44 54.272-97.28 79.872-4.608 43.52-11.776 84.992-20.48 123.904z" fill="#1296db" p-id="74651"></path>
    <path d="M669.696 817.152c-2.56 0-5.12-0.512-8.192-1.024-52.224-13.312-107.008-33.28-163.328-59.392-15.872-7.168-23.04-26.624-15.872-42.496 7.168-15.872 26.624-23.04 42.496-15.872 41.472 18.944 82.432 34.816 121.344 46.592 9.216-39.936 16.384-82.944 20.48-128.512 1.536-17.408 17.408-30.72 34.816-29.184 17.408 1.536 30.72 17.408 29.184 34.816-5.632 61.44-15.872 118.784-30.208 171.008-3.584 14.848-16.384 24.064-30.72 24.064zM827.392 544.256c-8.192 0-16.384-3.072-22.528-9.216-12.8-12.288-12.8-32.768-0.512-45.056 80.896-82.432 118.272-161.792 95.232-201.728-20.992-36.352-94.208-45.568-190.976-25.6 10.24 43.52 17.408 89.6 22.016 138.752 1.536 17.408-11.264 33.28-29.184 34.816-17.408 1.536-33.28-11.264-34.816-29.184-5.12-57.344-14.848-111.104-28.16-159.744-2.048-8.192-1.024-16.896 3.072-24.576s11.264-12.8 19.456-14.848c146.944-37.888 253.952-20.48 293.376 48.128 39.424 68.608 1.536 169.984-104.96 278.528-5.12 6.144-13.312 9.728-22.016 9.728zM224.768 836.096c-75.776 0-130.56-23.04-156.16-68.096-39.424-68.608-1.536-169.984 104.96-278.528 6.144-6.144 14.336-9.728 23.04-9.728 8.704 0 16.896 3.584 23.04 9.728 35.328 35.84 76.8 70.656 123.904 104.448 7.68 5.632 12.288 13.824 13.312 23.04 5.12 57.344 14.848 111.104 28.16 159.744 2.048 8.192 1.024 16.896-3.072 24.576s-11.264 12.8-19.456 14.848c-51.2 13.312-97.28 19.968-137.728 19.968z m-27.136-278.528c-65.536 73.728-94.208 141.824-73.216 178.176 20.992 36.352 94.208 45.568 190.976 25.6-9.216-38.912-15.872-80.384-20.48-123.904-35.84-25.6-68.608-52.224-97.28-79.872z" fill="#1296db" p-id="74652"></path>
    <path d="M698.88 436.224c-16.384 0-30.208-12.288-31.744-29.184-4.096-45.568-10.752-88.576-20.48-128.512-39.424 11.776-79.872 27.648-121.344 46.592-15.872 7.168-34.816 0.512-42.496-15.872-7.168-15.872-0.512-34.816 15.872-42.496 55.808-25.6 111.104-45.568 163.328-59.392 16.896-4.608 34.304 5.632 38.912 22.528 14.336 52.224 24.576 109.568 30.208 171.008 1.536 17.408-11.264 33.28-29.184 34.816-1.024 0.512-2.048 0.512-3.072 0.512zM354.304 817.152c-13.824 0-27.136-9.216-30.72-23.552-14.336-52.224-24.576-109.568-30.208-171.008-1.024-12.288 5.12-24.576 15.872-30.72 10.752-6.144 24.064-5.632 34.304 1.536 28.672 19.968 58.368 39.424 88.576 56.832 30.208 17.408 61.952 33.792 93.184 48.128 15.872 7.168 23.04 26.624 15.872 42.496-7.168 15.872-26.624 23.04-42.496 15.872-33.28-15.36-66.56-32.768-98.816-51.2-11.776-6.656-23.04-13.824-34.816-20.992 5.12 32.256 11.776 62.976 19.968 91.648 4.608 16.896-5.12 34.816-22.528 39.424-2.56 1.536-5.632 1.536-8.192 1.536z" fill="#1296db" p-id="74653"></path>
    <path d="M324.608 651.776c-6.144 0-12.8-2.048-18.432-5.632-50.176-35.328-95.232-73.216-132.608-111.616-12.288-12.288-12.288-32.256 0-45.056 37.888-38.4 82.432-76.288 132.608-111.616 14.336-10.24 34.304-6.656 44.544 7.68 10.24 14.336 6.656 34.304-7.68 44.544-37.376 26.624-71.168 53.76-101.376 81.92 29.696 28.16 64 55.296 101.376 81.92 14.336 10.24 17.92 30.208 7.68 44.544-6.144 8.704-15.872 13.312-26.112 13.312zM698.88 651.776c-5.632 0-11.264-1.536-15.872-4.096-10.752-6.144-16.896-18.432-15.872-30.72 3.072-34.304 4.608-69.632 4.608-104.96s-1.536-70.656-4.608-104.96c-1.536-17.408 11.264-33.28 29.184-34.816 17.408-1.536 33.28 11.264 34.816 29.184 3.072 36.352 5.12 73.728 5.12 111.104 0 13.312 0 27.136-0.512 40.448 25.088-20.48 48.64-41.472 69.632-62.976 12.288-12.8 32.768-12.8 45.056-0.512 12.8 12.288 12.8 32.768 0.512 45.056-37.888 38.4-82.432 76.288-132.608 111.616-6.144 3.584-12.8 5.632-19.456 5.632z" fill="#1296db" p-id="74654"></path>
    <path d="M325.12 436.224c-10.24 0-19.968-4.608-26.112-13.312-10.24-14.336-6.656-34.304 7.68-44.544 30.208-20.992 61.44-41.472 93.696-59.904 32.256-18.432 65.024-35.84 98.816-51.2 15.872-7.168 34.816-0.512 42.496 15.872 7.168 15.872 0.512 34.816-15.872 42.496-31.744 14.336-62.976 30.72-93.184 48.128-30.208 17.408-60.416 36.864-88.576 56.832-6.144 3.584-12.8 5.632-18.944 5.632zM699.392 651.776h-3.072c-17.408-1.536-30.72-17.408-29.184-34.816 3.072-34.304 4.608-69.632 4.608-104.96s-1.536-70.656-4.608-104.96c-1.536-17.408 11.264-33.28 29.184-34.816 17.408-1.536 33.28 11.264 34.816 29.184 3.072 36.352 5.12 73.728 5.12 111.104s-1.536 74.752-5.12 111.104c-1.536 15.872-15.872 28.16-31.744 28.16zM512 759.808c-4.608 0-9.216-1.024-13.312-3.072-33.28-15.36-66.56-32.768-98.816-51.2-32.256-18.432-63.488-38.912-93.696-59.904-14.336-10.24-17.92-30.208-7.68-44.544 10.24-14.336 30.208-17.92 44.544-7.68 28.672 19.968 58.368 39.424 88.576 56.832 30.208 17.408 61.952 33.792 93.184 48.128 15.872 7.168 23.04 26.624 15.872 42.496-5.12 12.288-16.384 18.944-28.672 18.944zM512 629.248c-64.512 0-117.248-52.736-117.248-117.248S447.488 394.752 512 394.752s117.248 52.736 117.248 117.248-52.736 117.248-117.248 117.248z m0-170.496c-29.184 0-53.248 24.064-53.248 53.248s24.064 53.248 53.248 53.248 53.248-24.064 53.248-53.248-24.064-53.248-53.248-53.248z" fill="#1296db" p-id="74655"></path>
</svg>