<svg t="1694266091023" class="icon" viewBox="0 0 1024 1024" version="1.1" xmlns="http://www.w3.org/2000/svg" p-id="73472" width="200" height="200">
    <path d="M704 592a144 144 0 0 1 144 144V832a48 48 0 0 1-48 48h-576a48 48 0 0 1-48-48v-96A144 144 0 0 1 320 592h384zM532.928 640h-41.856a63.616 63.616 0 0 0-59.072 40l-3.52 8.768a64 64 0 0 0 6.208 59.264l50.688 76.032a32 32 0 0 0 53.248 0l50.688-76.032a64 64 0 0 0 6.208-59.264l-3.52-8.768A63.616 63.616 0 0 0 532.928 640zM512 112a208 208 0 1 1 0 416 208 208 0 0 1 0-416z" fill="#13227a" p-id="73473"></path>
</svg>