<svg t="1694265914217" class="icon" viewBox="0 0 1024 1024" version="1.1" xmlns="http://www.w3.org/2000/svg" p-id="58640" width="200" height="200">
    <path d="M858.747 54c8.268 0 15.175 6.3 15.932 14.535L906.12 410.37V848.5H941c8.837 0 16 7.163 16 16v32c0 8.837-7.163 16-16 16H83c-8.837 0-16-7.163-16-16v-32c0-8.837 7.163-16 16-16h31V211.23c0-8.837 7.163-16 16-16a16 16 0 0 1 8.543 2.471L380 350.184V211.141c0-8.836 7.163-16 16-16a16 16 0 0 1 8.59 2.501L644 349.978V205.651c0-8.837 7.163-16 16-16a16 16 0 0 1 10.834 4.226l30.105 27.7 12.93-152.925C714.57 60.368 721.5 54 729.814 54h128.934zM169.999 283.798V848.5h680.12V454.272l-0.167 0.014-1.729-21.088-138.86-127.77-9.363-0.791v147.348L436 284.004V451.78L169.999 283.798zM478 660c8.837 0 16 7.163 16 16v104c0 8.837-7.163 16-16 16H252c-8.837 0-16-7.163-16-16V676c0-8.837 7.163-16 16-16h226z m290 0c8.837 0 16 7.163 16 16v104c0 8.837-7.163 16-16 16H542c-8.837 0-16-7.163-16-16V676c0-8.837 7.163-16 16-16h226z m-322 48H284v40h162v-40z m290 0H574v40h162v-40zM478 492c8.837 0 16 7.163 16 16v104c0 8.837-7.163 16-16 16H252c-8.837 0-16-7.163-16-16V508c0-8.837 7.163-16 16-16h226z m290 0c8.837 0 16 7.163 16 16v104c0 8.837-7.163 16-16 16H542c-8.837 0-16-7.163-16-16V508c0-8.837 7.163-16 16-16h226z m-322 48H284v40h162v-40z m290 0H574v40h162v-40z m94.496-323.167H757.54l-4.458 52.722 88.398 81.338-10.984-134.06zM821.743 110h-55.17l-4.298 50.833h63.633L821.743 110z" fill="#1296db" p-id="58641"></path>
</svg>