<svg t="1694266014991" class="icon" viewBox="0 0 1088 1024" version="1.1" xmlns="http://www.w3.org/2000/svg" p-id="68279" width="200" height="200">
    <path d="M14.464 634.176c0 205.92 182.08 279.424 247.68 299.2v73.888H814.72v-73.696c65.952-19.52 247.68-93.056 247.68-310.592v-167.264H14.464v178.464z m998.784 0c0 215.744-223.104 246.944-232.192 248.64l-13.408 10.88v64.896H309.184v-64.896l-12.992-10.816c-9.184-1.792-232.64-46.752-232.64-248.736v-32.416h949.696v32.416zM63.584 569.28v-64.896h949.664v64.896H63.584z m392.96-454.208h589.44v48.64h-589.44v-48.64z m-425.696 0h49.12v48.64H30.848v-48.64z m0 113.536h49.12v48.672L33.504 277.12 30.848 228.608z m425.696 0h589.44v48.672h-589.44v-48.64z m-355.2 196.8c60-12.864 73.76-56.896 76.864-83.232V115.072c0-36.032 47.104-39.616 52.384-39.68V17.728c-34.4 0-101.824 31.36-101.824 103.872v210.912c-1.12 5.568-7.744 29.76-39.296 36.48l11.904 56.416z m114.336 0c60-12.864 74.016-56.896 77.12-83.232V115.072c0-36.032 46.816-39.616 52.128-39.68V17.728c-34.4 0-101.856 31.36-101.856 103.872v210.912c-1.088 5.568-7.744 29.76-39.264 36.48l11.872 56.416z m114.336 0c59.968-12.864 74.304-56.896 77.44-83.232V115.072c0-36.032 46.464-39.616 51.776-39.68V17.728c-34.4 0-101.824 31.36-101.824 103.872v210.912c-1.12 5.568-7.744 29.76-39.296 36.48l11.904 56.416z" fill="#1296db" p-id="68280"></path>
</svg>